<svg width="18" height="19" viewBox="0 0 18 19" fill="none" xmlns="http://www.w3.org/2000/svg">
<path d="M7 7.57223L9 6.56623L11 7.57223V2.79373H7V7.57223ZM4 14.8657V12.8537H9V14.8657H4ZM2 18.8897C1.45 18.8897 0.979 18.6929 0.587 18.2992C0.195667 17.9048 0 17.431 0 16.8777V2.79373C0 2.24044 0.195667 1.76661 0.587 1.37226C0.979 0.978578 1.45 0.781738 2 0.781738H16C16.55 0.781738 17.021 0.978578 17.413 1.37226C17.8043 1.76661 18 2.24044 18 2.79373V16.8777C18 17.431 17.8043 17.9048 17.413 18.2992C17.021 18.6929 16.55 18.8897 16 18.8897H2ZM2 16.8777H16V2.79373H13V10.8417L9 8.82972L5 10.8417V2.79373H2V16.8777Z" fill="#D1D5DB"/>
</svg>
