<svg width="23" height="18" viewBox="0 0 23 18" fill="none" xmlns="http://www.w3.org/2000/svg">
<path d="M13.5909 9.73499C12.7197 9.73499 11.9792 9.41956 11.3693 8.78872C10.7595 8.15787 10.4545 7.39185 10.4545 6.49064C10.4545 5.58944 10.7595 4.82341 11.3693 4.19256C11.9792 3.56172 12.7197 3.2463 13.5909 3.2463C14.4621 3.2463 15.2027 3.56172 15.8125 4.19256C16.4223 4.82341 16.7273 5.58944 16.7273 6.49064C16.7273 7.39185 16.4223 8.15787 15.8125 8.78872C15.2027 9.41956 14.4621 9.73499 13.5909 9.73499ZM6.27273 12.9793C5.69773 12.9793 5.20567 12.7674 4.79655 12.3434C4.38673 11.9202 4.18182 11.4112 4.18182 10.8164V2.16485C4.18182 1.57005 4.38673 1.06105 4.79655 0.637844C5.20567 0.213917 5.69773 0.00195312 6.27273 0.00195312H20.9091C21.4841 0.00195312 21.9765 0.213917 22.3863 0.637844C22.7954 1.06105 23 1.57005 23 2.16485V10.8164C23 11.4112 22.7954 11.9202 22.3863 12.3434C21.9765 12.7674 21.4841 12.9793 20.9091 12.9793H6.27273ZM8.36364 10.8164H18.8182C18.8182 10.2216 19.0227 9.71228 19.4319 9.28835C19.8417 8.86514 20.3341 8.65354 20.9091 8.65354V4.32775C20.3341 4.32775 19.8417 4.11578 19.4319 3.69185C19.0227 3.26865 18.8182 2.75965 18.8182 2.16485H8.36364C8.36364 2.75965 8.15873 3.26865 7.74891 3.69185C7.33979 4.11578 6.84773 4.32775 6.27273 4.32775V8.65354C6.84773 8.65354 7.33979 8.86514 7.74891 9.28835C8.15873 9.71228 8.36364 10.2216 8.36364 10.8164ZM19.8636 17.3051H2.09091C1.51591 17.3051 1.02385 17.0935 0.614727 16.6703C0.204909 16.2464 0 15.737 0 15.1422V3.2463H2.09091V15.1422H19.8636V17.3051Z" fill="#D1D5DB"/>
</svg>
