<svg width="20" height="20" viewBox="0 0 20 20" fill="none" xmlns="http://www.w3.org/2000/svg">
<path d="M10 20C8.61667 20 7.31667 19.7373 6.1 19.212C4.88333 18.6873 3.825 17.975 2.925 17.075C2.025 16.175 1.31267 15.1167 0.788 13.9C0.262667 12.6833 0 11.3833 0 10C0 8.61667 0.262667 7.31667 0.788 6.1C1.31267 4.88333 2.025 3.825 2.925 2.925C3.825 2.025 4.88333 1.31233 6.1 0.787C7.31667 0.262333 8.61667 0 10 0C11.0833 0 12.1083 0.158333 13.075 0.475C14.0417 0.791667 14.9333 1.23333 15.75 1.8L14.3 3.275C13.6667 2.875 12.9917 2.56233 12.275 2.337C11.5583 2.11233 10.8 2 10 2C7.78333 2 5.896 2.779 4.338 4.337C2.77933 5.89567 2 7.78333 2 10C2 12.2167 2.77933 14.1043 4.338 15.663C5.896 17.221 7.78333 18 10 18C12.2167 18 14.1043 17.221 15.663 15.663C17.221 14.1043 18 12.2167 18 10C18 9.7 17.9833 9.4 17.95 9.1C17.9167 8.8 17.8667 8.50833 17.8 8.225L19.425 6.6C19.6083 7.13333 19.75 7.68333 19.85 8.25C19.95 8.81667 20 9.4 20 10C20 11.3833 19.7373 12.6833 19.212 13.9C18.6873 15.1167 17.975 16.175 17.075 17.075C16.175 17.975 15.1167 18.6873 13.9 19.212C12.6833 19.7373 11.3833 20 10 20ZM8.6 14.6L4.35 10.35L5.75 8.95L8.6 11.8L18.6 1.775L20 3.175L8.6 14.6Z" fill="#B23392"/>
</svg>
