<svg width="20" height="17" viewBox="0 0 20 17" fill="none" xmlns="http://www.w3.org/2000/svg">
<path d="M16 9.78592V7.77392H20V9.78592H16ZM17.2 16.8279L14 14.4135L15.2 12.8039L18.4 15.2183L17.2 16.8279ZM15.2 4.75593L14 3.14633L17.2 0.731934L18.4 2.34153L15.2 4.75593ZM3 15.8219V11.7979H2C1.45 11.7979 0.979333 11.6007 0.588 11.2064C0.196 10.8127 0 10.3392 0 9.78592V7.77392C0 7.22062 0.196 6.7468 0.588 6.35245C0.979333 5.95876 1.45 5.76192 2 5.76192H6L11 2.74393V14.8159L6 11.7979H5V15.8219H3ZM12 12.15V5.40982C12.45 5.81222 12.8127 6.30282 13.088 6.8816C13.3627 7.45971 13.5 8.09249 13.5 8.77992C13.5 9.46735 13.3627 10.1001 13.088 10.6782C12.8127 11.257 12.45 11.7476 12 12.15ZM2 7.77392V9.78592H6.55L9 11.2446V6.31522L6.55 7.77392H2Z" fill="#D1D5DB"/>
</svg>
