<svg width="22" height="17" viewBox="0 0 22 17" fill="none" xmlns="http://www.w3.org/2000/svg">
<path d="M0 16.552V12.528C0 11.958 0.196 11.4801 0.588 11.0945C0.979333 10.7089 1.45 10.516 2 10.516H5.275C5.60833 10.516 5.925 10.5999 6.225 10.7675C6.525 10.9352 6.76667 11.1616 6.95 11.4466C7.43333 12.1005 8.02933 12.6119 8.738 12.9807C9.446 13.3496 10.2 13.534 11 13.534C11.8167 13.534 12.5793 13.3496 13.288 12.9807C13.996 12.6119 14.5833 12.1005 15.05 11.4466C15.2667 11.1616 15.5207 10.9352 15.812 10.7675C16.104 10.5999 16.4083 10.516 16.725 10.516H20C20.5667 10.516 21.0417 10.7089 21.425 11.0945C21.8083 11.4801 22 11.958 22 12.528V16.552H15V14.2634C14.4167 14.6825 13.7877 15.0011 13.113 15.2191C12.4377 15.437 11.7333 15.546 11 15.546C10.2833 15.546 9.58333 15.433 8.9 15.207C8.21667 14.9803 7.58333 14.6574 7 14.2382V16.552H0ZM11 12.528C10.3667 12.528 9.76667 12.3812 9.2 12.0874C8.63333 11.7943 8.15833 11.3879 7.775 10.8681C7.49167 10.449 7.13767 10.118 6.713 9.87522C6.28767 9.63176 5.825 9.51004 5.325 9.51004C5.69167 8.88967 6.46667 8.39908 7.65 8.03826C8.83333 7.67811 9.95 7.49804 11 7.49804C12.05 7.49804 13.1667 7.67811 14.35 8.03826C15.5333 8.39908 16.3083 8.88967 16.675 9.51004C16.1917 9.51004 15.7333 9.63176 15.3 9.87522C14.8667 10.118 14.5083 10.449 14.225 10.8681C13.8583 11.4047 13.3917 11.8154 12.825 12.1005C12.2583 12.3855 11.65 12.528 11 12.528ZM3 9.51004C2.16667 9.51004 1.45833 9.21662 0.875 8.62979C0.291667 8.04296 0 7.33038 0 6.49204C0 5.63695 0.291667 4.92 0.875 4.34122C1.45833 3.76311 2.16667 3.47405 3 3.47405C3.85 3.47405 4.56267 3.76311 5.138 4.34122C5.71267 4.92 6 5.63695 6 6.49204C6 7.33038 5.71267 8.04296 5.138 8.62979C4.56267 9.21662 3.85 9.51004 3 9.51004ZM19 9.51004C18.1667 9.51004 17.4583 9.21662 16.875 8.62979C16.2917 8.04296 16 7.33038 16 6.49204C16 5.63695 16.2917 4.92 16.875 4.34122C17.4583 3.76311 18.1667 3.47405 19 3.47405C19.85 3.47405 20.5627 3.76311 21.138 4.34122C21.7127 4.92 22 5.63695 22 6.49204C22 7.33038 21.7127 8.04296 21.138 8.62979C20.5627 9.21662 19.85 9.51004 19 9.51004ZM11 6.49204C10.1667 6.49204 9.45833 6.19863 8.875 5.61179C8.29167 5.02496 8 4.31238 8 3.47405C8 2.61895 8.29167 1.90201 8.875 1.32323C9.45833 0.745111 10.1667 0.456055 11 0.456055C11.85 0.456055 12.5623 0.745111 13.137 1.32323C13.7123 1.90201 14 2.61895 14 3.47405C14 4.31238 13.7123 5.02496 13.137 5.61179C12.5623 6.19863 11.85 6.49204 11 6.49204Z" fill="#D9D9D9"/>
</svg>
