<svg width="20" height="21" viewBox="0 0 20 21" fill="none" xmlns="http://www.w3.org/2000/svg">
<path d="M1 18.3555V6.98775C0.716667 6.80331 0.479333 6.56858 0.288 6.28355C0.0960001 5.99851 0 5.66318 0 5.27755V2.25955C0 1.70626 0.196 1.23243 0.588 0.838079C0.979333 0.444399 1.45 0.247559 2 0.247559H18C18.55 0.247559 19.021 0.444399 19.413 0.838079C19.8043 1.23243 20 1.70626 20 2.25955V5.27755C20 5.66318 19.904 5.99851 19.712 6.28355C19.5207 6.56858 19.2833 6.80331 19 6.98775V18.3555C19 18.9088 18.8043 19.3826 18.413 19.777C18.021 20.1707 17.55 20.3675 17 20.3675H3C2.45 20.3675 1.979 20.1707 1.587 19.777C1.19567 19.3826 1 18.9088 1 18.3555ZM3 7.28955V18.3555H17V7.28955H3ZM18 5.27755V2.25955H2V5.27755H18ZM7 12.3195H13V10.3075H7V12.3195Z" fill="#10B981"/>
</svg>
