<svg width="20" height="21" viewBox="0 0 20 21" fill="none" xmlns="http://www.w3.org/2000/svg">
<path d="M10 20.1654C8.63333 20.1654 7.34167 19.9011 6.125 19.3726C4.90833 18.8448 3.846 18.1239 2.938 17.2098C2.02933 16.2963 1.31267 15.2276 0.788 14.0036C0.262667 12.7797 0 11.4803 0 10.1054C0 8.71376 0.262667 7.41032 0.788 6.19508C1.31267 4.97916 2.02933 3.91448 2.938 3.00103C3.846 2.08692 4.90833 1.36562 6.125 0.837131C7.34167 0.309317 8.63333 0.0454102 10 0.0454102C11.3833 0.0454102 12.679 0.309317 13.887 0.837131C15.0957 1.36562 16.154 2.08692 17.062 3.00103C17.9707 3.91448 18.6873 4.97916 19.212 6.19508C19.7373 7.41032 20 8.71376 20 10.1054C20 11.4803 19.7373 12.7797 19.212 14.0036C18.6873 15.2276 17.9707 16.2963 17.062 17.2098C16.154 18.1239 15.0957 18.8448 13.887 19.3726C12.679 19.9011 11.3833 20.1654 10 20.1654ZM10 18.1031C10.4333 17.4995 10.8083 16.8707 11.125 16.2168C11.4417 15.5629 11.7 14.8671 11.9 14.1294H8.1C8.3 14.8671 8.55833 15.5629 8.875 16.2168C9.19167 16.8707 9.56667 17.4995 10 18.1031ZM7.4 17.7007C7.1 17.1474 6.83767 16.573 6.613 15.9774C6.38767 15.3825 6.2 14.7665 6.05 14.1294H3.1C3.58333 14.9677 4.18733 15.6971 4.912 16.3174C5.63733 16.9378 6.46667 17.3989 7.4 17.7007ZM12.6 17.7007C13.5333 17.3989 14.3623 16.9378 15.087 16.3174C15.8123 15.6971 16.4167 14.9677 16.9 14.1294H13.95C13.8 14.7665 13.6127 15.3825 13.388 15.9774C13.1627 16.573 12.9 17.1474 12.6 17.7007ZM2.25 12.1174H5.65C5.6 11.7821 5.56233 11.4507 5.537 11.1235C5.51233 10.7968 5.5 10.4575 5.5 10.1054C5.5 9.75329 5.51233 9.41394 5.537 9.08732C5.56233 8.76004 5.6 8.42873 5.65 8.0934H2.25C2.16667 8.42873 2.104 8.76004 2.062 9.08732C2.02067 9.41394 2 9.75329 2 10.1054C2 10.4575 2.02067 10.7968 2.062 11.1235C2.104 11.4507 2.16667 11.7821 2.25 12.1174ZM7.65 12.1174H12.35C12.4 11.7821 12.4377 11.4507 12.463 11.1235C12.4877 10.7968 12.5 10.4575 12.5 10.1054C12.5 9.75329 12.4877 9.41394 12.463 9.08732C12.4377 8.76004 12.4 8.42873 12.35 8.0934H7.65C7.6 8.42873 7.56267 8.76004 7.538 9.08732C7.51267 9.41394 7.5 9.75329 7.5 10.1054C7.5 10.4575 7.51267 10.7968 7.538 11.1235C7.56267 11.4507 7.6 11.7821 7.65 12.1174ZM14.35 12.1174H17.75C17.8333 11.7821 17.896 11.4507 17.938 11.1235C17.9793 10.7968 18 10.4575 18 10.1054C18 9.75329 17.9793 9.41394 17.938 9.08732C17.896 8.76004 17.8333 8.42873 17.75 8.0934H14.35C14.4 8.42873 14.4373 8.76004 14.462 9.08732C14.4873 9.41394 14.5 9.75329 14.5 10.1054C14.5 10.4575 14.4873 10.7968 14.462 11.1235C14.4373 11.4507 14.4 11.7821 14.35 12.1174ZM13.95 6.0814H16.9C16.4167 5.24307 15.8123 4.51372 15.087 3.89335C14.3623 3.27299 13.5333 2.8119 12.6 2.51011C12.9 3.0634 13.1627 3.63749 13.388 4.23237C13.6127 4.82793 13.8 5.44427 13.95 6.0814ZM8.1 6.0814H11.9C11.7 5.34367 11.4417 4.64785 11.125 3.99395C10.8083 3.34005 10.4333 2.71131 10 2.10771C9.56667 2.71131 9.19167 3.34005 8.875 3.99395C8.55833 4.64785 8.3 5.34367 8.1 6.0814ZM3.1 6.0814H6.05C6.2 5.44427 6.38767 4.82793 6.613 4.23237C6.83767 3.63749 7.1 3.0634 7.4 2.51011C6.46667 2.8119 5.63733 3.27299 4.912 3.89335C4.18733 4.51372 3.58333 5.24307 3.1 6.0814Z" fill="#D1D5DB"/>
</svg>
