<svg width="14" height="16" viewBox="0 0 14 16" fill="none" xmlns="http://www.w3.org/2000/svg">
<path fill-rule="evenodd" clip-rule="evenodd" d="M7 6.56577C7.79565 6.56577 8.55871 6.24781 9.12132 5.68182C9.68393 5.11584 10 4.3482 10 3.54778C10 2.74736 9.68393 1.97972 9.12132 1.41374C8.55871 0.847752 7.79565 0.529785 7 0.529785C6.20435 0.529785 5.44129 0.847752 4.87868 1.41374C4.31607 1.97972 4 2.74736 4 3.54778C4 4.3482 4.31607 5.11584 4.87868 5.68182C5.44129 6.24781 6.20435 6.56577 7 6.56577ZM0 15.6198C-1.36979e-08 14.695 0.18106 13.7793 0.532843 12.9249C0.884626 12.0705 1.40024 11.2942 2.05025 10.6403C2.70026 9.98641 3.47194 9.4677 4.32122 9.11381C5.1705 8.75992 6.08075 8.57777 7 8.57777C7.91925 8.57777 8.8295 8.75992 9.67878 9.11381C10.5281 9.4677 11.2997 9.98641 11.9497 10.6403C12.5998 11.2942 13.1154 12.0705 13.4672 12.9249C13.8189 13.7793 14 14.695 14 15.6198H0Z" fill="#D9D9D9"/>
</svg>
